<mxfile host="app.diagrams.net" modified="2024-02-12T05:35:33.938Z" agent="Mozilla/5.0 (Windows NT 10.0; Win64; x64) AppleWebKit/537.36 (KHTML, like Gecko) Chrome/120.0.0.0 YaBrowser/24.1.0.0 Safari/537.36" etag="JS_XfjecN774MO7RNrrE" version="23.1.2" type="github">
  <diagram name="Page-1" id="74e2e168-ea6b-b213-b513-2b3c1d86103e">
    <mxGraphModel dx="1793" dy="989" grid="1" gridSize="10" guides="1" tooltips="1" connect="1" arrows="1" fold="1" page="1" pageScale="1" pageWidth="1100" pageHeight="850" background="none" math="0" shadow="0">
      <root>
        <mxCell id="0" />
        <mxCell id="1" parent="0" />
        <mxCell id="77e6c97f196da883-1" value="Pool" style="swimlane;html=1;childLayout=stackLayout;startSize=20;rounded=0;shadow=0;labelBackgroundColor=none;strokeWidth=1;fontFamily=Verdana;fontSize=8;align=center;" parent="1" vertex="1">
          <mxGeometry x="70" y="40" width="1380" height="1600" as="geometry" />
        </mxCell>
        <mxCell id="77e6c97f196da883-2" value="Мобильное Приложение" style="swimlane;html=1;startSize=20;" parent="77e6c97f196da883-1" vertex="1">
          <mxGeometry y="20" width="600" height="1580" as="geometry" />
        </mxCell>
        <mxCell id="NRH0jWtVndr9vISsza53-18" value="Код статуса 200? В ответе содережится ID созданного пользователя?" style="rhombus;whiteSpace=wrap;html=1;rounded=0;shadow=0;labelBackgroundColor=none;strokeWidth=1;fontFamily=Verdana;fontSize=8;align=center;" vertex="1" parent="77e6c97f196da883-2">
          <mxGeometry x="260" y="380" width="165" height="100" as="geometry" />
        </mxCell>
        <mxCell id="NRH0jWtVndr9vISsza53-17" value="Отобразить сообщение о том, что не удалось отправить сообщение в чат." style="rounded=1;whiteSpace=wrap;html=1;shadow=0;labelBackgroundColor=none;strokeWidth=1;fontFamily=Verdana;fontSize=8;align=center;" vertex="1" parent="77e6c97f196da883-2">
          <mxGeometry x="443.75" y="510" width="100" height="60" as="geometry" />
        </mxCell>
        <mxCell id="NRH0jWtVndr9vISsza53-8" value="" style="endArrow=classic;html=1;rounded=0;entryX=0.5;entryY=0;entryDx=0;entryDy=0;edgeStyle=orthogonalEdgeStyle;exitX=1;exitY=0.5;exitDx=0;exitDy=0;" edge="1" parent="77e6c97f196da883-2" source="NRH0jWtVndr9vISsza53-18" target="NRH0jWtVndr9vISsza53-17">
          <mxGeometry width="50" height="50" relative="1" as="geometry">
            <mxPoint x="260" y="490" as="sourcePoint" />
            <mxPoint x="70" y="460" as="targetPoint" />
            <Array as="points">
              <mxPoint x="494" y="430" />
            </Array>
          </mxGeometry>
        </mxCell>
        <mxCell id="NRH0jWtVndr9vISsza53-20" value="Нет" style="edgeLabel;html=1;align=center;verticalAlign=middle;resizable=0;points=[];" vertex="1" connectable="0" parent="NRH0jWtVndr9vISsza53-8">
          <mxGeometry x="-0.6974" y="-1" relative="1" as="geometry">
            <mxPoint as="offset" />
          </mxGeometry>
        </mxCell>
        <mxCell id="NRH0jWtVndr9vISsza53-32" value="Отправка запроса о том, что необходимо сохранить ID пользователя в carrotquest" style="rounded=1;whiteSpace=wrap;html=1;shadow=0;labelBackgroundColor=none;strokeWidth=1;fontFamily=Verdana;fontSize=8;align=center;" vertex="1" parent="77e6c97f196da883-2">
          <mxGeometry x="141.25" y="550" width="100" height="60" as="geometry" />
        </mxCell>
        <mxCell id="NRH0jWtVndr9vISsza53-24" value="" style="endArrow=classic;html=1;rounded=0;exitX=0;exitY=0.5;exitDx=0;exitDy=0;entryX=0.5;entryY=0;entryDx=0;entryDy=0;edgeStyle=orthogonalEdgeStyle;" edge="1" parent="77e6c97f196da883-2" source="NRH0jWtVndr9vISsza53-18" target="NRH0jWtVndr9vISsza53-32">
          <mxGeometry width="50" height="50" relative="1" as="geometry">
            <mxPoint x="740" y="510" as="sourcePoint" />
            <mxPoint x="790" y="460" as="targetPoint" />
          </mxGeometry>
        </mxCell>
        <mxCell id="NRH0jWtVndr9vISsza53-25" value="Да" style="edgeLabel;html=1;align=center;verticalAlign=middle;resizable=0;points=[];" vertex="1" connectable="0" parent="NRH0jWtVndr9vISsza53-24">
          <mxGeometry x="-0.7641" y="2" relative="1" as="geometry">
            <mxPoint as="offset" />
          </mxGeometry>
        </mxCell>
        <mxCell id="NRH0jWtVndr9vISsza53-35" value="Подключение по websocket к каналу для получения новых сообщений" style="rounded=1;whiteSpace=wrap;html=1;shadow=0;labelBackgroundColor=none;strokeWidth=1;fontFamily=Verdana;fontSize=8;align=center;" vertex="1" parent="77e6c97f196da883-2">
          <mxGeometry x="141.25" y="640" width="100" height="60" as="geometry" />
        </mxCell>
        <mxCell id="NRH0jWtVndr9vISsza53-36" value="" style="endArrow=classic;html=1;rounded=0;exitX=0.5;exitY=1;exitDx=0;exitDy=0;entryX=0.5;entryY=0;entryDx=0;entryDy=0;" edge="1" parent="77e6c97f196da883-2" source="NRH0jWtVndr9vISsza53-32" target="NRH0jWtVndr9vISsza53-35">
          <mxGeometry width="50" height="50" relative="1" as="geometry">
            <mxPoint x="200" y="700" as="sourcePoint" />
            <mxPoint x="250" y="650" as="targetPoint" />
          </mxGeometry>
        </mxCell>
        <mxCell id="NRH0jWtVndr9vISsza53-38" value="&lt;font style=&quot;font-size: 10px;&quot;&gt;У пользователя есть ID в carrotquest?&lt;/font&gt;" style="rhombus;whiteSpace=wrap;html=1;" vertex="1" parent="77e6c97f196da883-2">
          <mxGeometry x="272.5" y="70" width="140" height="110" as="geometry" />
        </mxCell>
        <mxCell id="NRH0jWtVndr9vISsza53-5" value="" style="endArrow=classic;html=1;rounded=0;exitX=1;exitY=0.5;exitDx=0;exitDy=0;entryX=0.5;entryY=0;entryDx=0;entryDy=0;edgeStyle=orthogonalEdgeStyle;" edge="1" parent="77e6c97f196da883-2" source="NRH0jWtVndr9vISsza53-38" target="NRH0jWtVndr9vISsza53-40">
          <mxGeometry width="50" height="50" relative="1" as="geometry">
            <mxPoint x="574.9999999999998" y="190" as="sourcePoint" />
            <mxPoint x="70" y="180" as="targetPoint" />
          </mxGeometry>
        </mxCell>
        <mxCell id="NRH0jWtVndr9vISsza53-39" value="Нет" style="edgeLabel;html=1;align=center;verticalAlign=middle;resizable=0;points=[];" vertex="1" connectable="0" parent="NRH0jWtVndr9vISsza53-5">
          <mxGeometry x="-0.579" y="1" relative="1" as="geometry">
            <mxPoint as="offset" />
          </mxGeometry>
        </mxCell>
        <mxCell id="NRH0jWtVndr9vISsza53-40" value="Отправка запроса на создание диалога. В запросе находится ID пользователя на сайте." style="rounded=1;whiteSpace=wrap;html=1;shadow=0;labelBackgroundColor=none;strokeWidth=1;fontFamily=Verdana;fontSize=8;align=center;" vertex="1" parent="77e6c97f196da883-2">
          <mxGeometry x="450" y="180" width="100" height="60" as="geometry" />
        </mxCell>
        <mxCell id="NRH0jWtVndr9vISsza53-41" value="Отправка запроса о том, что необходимо сохранить ID пользователя в carrotquest" style="rounded=1;whiteSpace=wrap;html=1;shadow=0;labelBackgroundColor=none;strokeWidth=1;fontFamily=Verdana;fontSize=8;align=center;" vertex="1" parent="77e6c97f196da883-2">
          <mxGeometry x="20" y="760" width="100" height="60" as="geometry" />
        </mxCell>
        <mxCell id="NRH0jWtVndr9vISsza53-42" value="" style="endArrow=classic;html=1;rounded=0;exitX=0;exitY=0.5;exitDx=0;exitDy=0;entryX=0.5;entryY=0;entryDx=0;entryDy=0;edgeStyle=orthogonalEdgeStyle;" edge="1" parent="77e6c97f196da883-2" source="NRH0jWtVndr9vISsza53-38" target="NRH0jWtVndr9vISsza53-41">
          <mxGeometry width="50" height="50" relative="1" as="geometry">
            <mxPoint x="50" y="230" as="sourcePoint" />
            <mxPoint x="100" y="180" as="targetPoint" />
          </mxGeometry>
        </mxCell>
        <mxCell id="NRH0jWtVndr9vISsza53-16" value="" style="endArrow=classic;html=1;rounded=0;exitX=0.5;exitY=1;exitDx=0;exitDy=0;entryX=0.5;entryY=0;entryDx=0;entryDy=0;edgeStyle=orthogonalEdgeStyle;" edge="1" parent="77e6c97f196da883-1" source="NRH0jWtVndr9vISsza53-40" target="77e6c97f196da883-12">
          <mxGeometry width="50" height="50" relative="1" as="geometry">
            <mxPoint x="70" y="260" as="sourcePoint" />
            <mxPoint x="860" y="260" as="targetPoint" />
            <Array as="points">
              <mxPoint x="500" y="280" />
              <mxPoint x="810" y="280" />
            </Array>
          </mxGeometry>
        </mxCell>
        <mxCell id="NRH0jWtVndr9vISsza53-19" value="" style="endArrow=classic;html=1;rounded=0;exitX=0.5;exitY=1;exitDx=0;exitDy=0;entryX=0.5;entryY=0;entryDx=0;entryDy=0;edgeStyle=orthogonalEdgeStyle;" edge="1" parent="77e6c97f196da883-1" source="77e6c97f196da883-12" target="NRH0jWtVndr9vISsza53-18">
          <mxGeometry width="50" height="50" relative="1" as="geometry">
            <mxPoint x="820" y="480" as="sourcePoint" />
            <mxPoint x="870" y="430" as="targetPoint" />
            <Array as="points">
              <mxPoint x="810" y="380" />
              <mxPoint x="343" y="380" />
              <mxPoint x="343" y="400" />
            </Array>
          </mxGeometry>
        </mxCell>
        <mxCell id="77e6c97f196da883-4" value="Carrotquest" style="swimlane;html=1;startSize=20;" parent="77e6c97f196da883-1" vertex="1">
          <mxGeometry x="600" y="20" width="420" height="1580" as="geometry" />
        </mxCell>
        <mxCell id="77e6c97f196da883-12" value="Создание диалога. Отправка информации о созданном диалоге" style="rounded=1;whiteSpace=wrap;html=1;shadow=0;labelBackgroundColor=none;strokeWidth=1;fontFamily=Verdana;fontSize=8;align=center;" parent="77e6c97f196da883-4" vertex="1">
          <mxGeometry x="160" y="280" width="100" height="60" as="geometry" />
        </mxCell>
        <mxCell id="NRH0jWtVndr9vISsza53-37" value="Создание диалога. Отправка информации о созданном диалоге" style="rounded=1;whiteSpace=wrap;html=1;shadow=0;labelBackgroundColor=none;strokeWidth=1;fontFamily=Verdana;fontSize=8;align=center;" vertex="1" parent="77e6c97f196da883-4">
          <mxGeometry x="170" y="640" width="100" height="60" as="geometry" />
        </mxCell>
        <mxCell id="NRH0jWtVndr9vISsza53-34" value="" style="endArrow=classic;html=1;rounded=0;exitX=1;exitY=0.5;exitDx=0;exitDy=0;entryX=0.5;entryY=0;entryDx=0;entryDy=0;edgeStyle=orthogonalEdgeStyle;" edge="1" parent="77e6c97f196da883-1" source="NRH0jWtVndr9vISsza53-32" target="NRH0jWtVndr9vISsza53-23">
          <mxGeometry width="50" height="50" relative="1" as="geometry">
            <mxPoint x="570" y="540" as="sourcePoint" />
            <mxPoint x="620" y="490" as="targetPoint" />
            <Array as="points">
              <mxPoint x="1200" y="600" />
            </Array>
          </mxGeometry>
        </mxCell>
        <mxCell id="77e6c97f196da883-3" value="Сайт" style="swimlane;html=1;startSize=20;" parent="77e6c97f196da883-1" vertex="1">
          <mxGeometry x="1020" y="20" width="360" height="1580" as="geometry" />
        </mxCell>
        <mxCell id="NRH0jWtVndr9vISsza53-23" value="Закрепить полученный ID за пользователем на сайте" style="rounded=1;whiteSpace=wrap;html=1;shadow=0;labelBackgroundColor=none;strokeWidth=1;fontFamily=Verdana;fontSize=8;align=center;" vertex="1" parent="77e6c97f196da883-3">
          <mxGeometry x="130" y="620" width="100" height="60" as="geometry" />
        </mxCell>
        <mxCell id="NRH0jWtVndr9vISsza53-43" value="Pool" style="swimlane;html=1;childLayout=stackLayout;startSize=20;rounded=0;shadow=0;labelBackgroundColor=none;strokeWidth=1;fontFamily=Verdana;fontSize=8;align=center;" vertex="1" parent="1">
          <mxGeometry x="1640" y="40" width="1670" height="1600" as="geometry" />
        </mxCell>
        <mxCell id="NRH0jWtVndr9vISsza53-44" value="Мобильное Приложение" style="swimlane;html=1;startSize=20;" vertex="1" parent="NRH0jWtVndr9vISsza53-43">
          <mxGeometry y="20" width="890" height="1580" as="geometry" />
        </mxCell>
        <mxCell id="NRH0jWtVndr9vISsza53-47" value="" style="endArrow=classic;html=1;rounded=0;entryX=0.5;entryY=0;entryDx=0;entryDy=0;edgeStyle=orthogonalEdgeStyle;exitX=1;exitY=0.5;exitDx=0;exitDy=0;" edge="1" parent="NRH0jWtVndr9vISsza53-44" source="NRH0jWtVndr9vISsza53-45">
          <mxGeometry width="50" height="50" relative="1" as="geometry">
            <mxPoint x="260" y="490" as="sourcePoint" />
            <mxPoint x="493.75" y="510" as="targetPoint" />
            <Array as="points">
              <mxPoint x="494" y="430" />
            </Array>
          </mxGeometry>
        </mxCell>
        <mxCell id="NRH0jWtVndr9vISsza53-48" value="Нет" style="edgeLabel;html=1;align=center;verticalAlign=middle;resizable=0;points=[];" vertex="1" connectable="0" parent="NRH0jWtVndr9vISsza53-47">
          <mxGeometry x="-0.6974" y="-1" relative="1" as="geometry">
            <mxPoint as="offset" />
          </mxGeometry>
        </mxCell>
        <mxCell id="NRH0jWtVndr9vISsza53-50" value="" style="endArrow=classic;html=1;rounded=0;exitX=0;exitY=0.5;exitDx=0;exitDy=0;entryX=0.5;entryY=0;entryDx=0;entryDy=0;edgeStyle=orthogonalEdgeStyle;" edge="1" parent="NRH0jWtVndr9vISsza53-44" source="NRH0jWtVndr9vISsza53-45">
          <mxGeometry width="50" height="50" relative="1" as="geometry">
            <mxPoint x="740" y="510" as="sourcePoint" />
            <mxPoint x="191.25" y="550" as="targetPoint" />
          </mxGeometry>
        </mxCell>
        <mxCell id="NRH0jWtVndr9vISsza53-51" value="Да" style="edgeLabel;html=1;align=center;verticalAlign=middle;resizable=0;points=[];" vertex="1" connectable="0" parent="NRH0jWtVndr9vISsza53-50">
          <mxGeometry x="-0.7641" y="2" relative="1" as="geometry">
            <mxPoint as="offset" />
          </mxGeometry>
        </mxCell>
        <mxCell id="NRH0jWtVndr9vISsza53-53" value="" style="endArrow=classic;html=1;rounded=0;exitX=0.5;exitY=1;exitDx=0;exitDy=0;entryX=0.5;entryY=0;entryDx=0;entryDy=0;" edge="1" parent="NRH0jWtVndr9vISsza53-44" source="NRH0jWtVndr9vISsza53-49">
          <mxGeometry width="50" height="50" relative="1" as="geometry">
            <mxPoint x="200" y="700" as="sourcePoint" />
            <mxPoint x="191.25" y="640" as="targetPoint" />
          </mxGeometry>
        </mxCell>
        <mxCell id="NRH0jWtVndr9vISsza53-55" value="" style="endArrow=classic;html=1;rounded=0;exitX=1;exitY=0.5;exitDx=0;exitDy=0;entryX=0.5;entryY=0;entryDx=0;entryDy=0;edgeStyle=orthogonalEdgeStyle;" edge="1" parent="NRH0jWtVndr9vISsza53-44" target="NRH0jWtVndr9vISsza53-57">
          <mxGeometry width="50" height="50" relative="1" as="geometry">
            <mxPoint x="412.5" y="125" as="sourcePoint" />
            <mxPoint x="70" y="180" as="targetPoint" />
          </mxGeometry>
        </mxCell>
        <mxCell id="NRH0jWtVndr9vISsza53-56" value="Нет" style="edgeLabel;html=1;align=center;verticalAlign=middle;resizable=0;points=[];" vertex="1" connectable="0" parent="NRH0jWtVndr9vISsza53-55">
          <mxGeometry x="-0.579" y="1" relative="1" as="geometry">
            <mxPoint as="offset" />
          </mxGeometry>
        </mxCell>
        <mxCell id="NRH0jWtVndr9vISsza53-59" value="" style="endArrow=classic;html=1;rounded=0;exitX=0;exitY=0.5;exitDx=0;exitDy=0;entryX=0.5;entryY=0;entryDx=0;entryDy=0;edgeStyle=orthogonalEdgeStyle;" edge="1" parent="NRH0jWtVndr9vISsza53-44" source="NRH0jWtVndr9vISsza53-54">
          <mxGeometry width="50" height="50" relative="1" as="geometry">
            <mxPoint x="50" y="230" as="sourcePoint" />
            <mxPoint x="70" y="760" as="targetPoint" />
          </mxGeometry>
        </mxCell>
        <mxCell id="NRH0jWtVndr9vISsza53-68" value="&lt;font style=&quot;font-size: 10px;&quot;&gt;Отправка запроса на получение ключа carrotquest&lt;/font&gt;" style="rounded=1;whiteSpace=wrap;html=1;" vertex="1" parent="NRH0jWtVndr9vISsza53-44">
          <mxGeometry x="240" y="60" width="120" height="60" as="geometry" />
        </mxCell>
        <mxCell id="NRH0jWtVndr9vISsza53-83" value="" style="endArrow=classic;html=1;rounded=0;exitX=0.5;exitY=1;exitDx=0;exitDy=0;entryX=0.5;entryY=0;entryDx=0;entryDy=0;" edge="1" parent="NRH0jWtVndr9vISsza53-44" target="NRH0jWtVndr9vISsza53-82">
          <mxGeometry width="50" height="50" relative="1" as="geometry">
            <mxPoint x="290" y="490" as="sourcePoint" />
            <mxPoint x="410" y="550" as="targetPoint" />
          </mxGeometry>
        </mxCell>
        <mxCell id="NRH0jWtVndr9vISsza53-84" value="" style="endArrow=classic;html=1;rounded=0;exitX=1;exitY=0.5;exitDx=0;exitDy=0;entryX=0.5;entryY=0;entryDx=0;entryDy=0;edgeStyle=orthogonalEdgeStyle;" edge="1" parent="NRH0jWtVndr9vISsza53-44" source="NRH0jWtVndr9vISsza53-82">
          <mxGeometry width="50" height="50" relative="1" as="geometry">
            <mxPoint x="470" y="620" as="sourcePoint" />
            <mxPoint x="450" y="650" as="targetPoint" />
          </mxGeometry>
        </mxCell>
        <mxCell id="NRH0jWtVndr9vISsza53-85" value="Да" style="edgeLabel;html=1;align=center;verticalAlign=middle;resizable=0;points=[];" vertex="1" connectable="0" parent="NRH0jWtVndr9vISsza53-84">
          <mxGeometry x="-0.5571" y="-2" relative="1" as="geometry">
            <mxPoint as="offset" />
          </mxGeometry>
        </mxCell>
        <mxCell id="NRH0jWtVndr9vISsza53-86" value="&lt;font style=&quot;font-size: 10px;&quot;&gt;Подключение по websocket к каналам&lt;br&gt;&lt;a style=&quot;box-sizing: border-box; outline: 0px; text-align: start;&quot; href=&quot;https://developers.carrotquest.io/rts/channels/ping&quot;&gt;ping&lt;/a&gt;,&lt;br&gt;&lt;a style=&quot;box-sizing: border-box; outline: 0px; text-align: start;&quot; href=&quot;https://developers.carrotquest.io/rts/channels/conversation_reply_user&quot;&gt;conversation_reply.{app_id}.{user_id}&lt;/a&gt;,&lt;br&gt;&lt;a style=&quot;box-sizing: border-box; text-align: start;&quot; href=&quot;https://developers.carrotquest.io/rts/channels/conversation_closed&quot;&gt;conversation_closed.{app_id}&lt;/a&gt;&lt;/font&gt;&lt;span style=&quot;font-size: 10px;&quot;&gt;&lt;br&gt;&lt;/span&gt;" style="rounded=1;whiteSpace=wrap;html=1;" vertex="1" parent="NRH0jWtVndr9vISsza53-44">
          <mxGeometry x="410" y="980" width="180" height="90" as="geometry" />
        </mxCell>
        <mxCell id="NRH0jWtVndr9vISsza53-87" value="&lt;font style=&quot;font-size: 10px;&quot;&gt;Берём чат, в котором свойство created самое большое&lt;/font&gt;" style="rounded=1;whiteSpace=wrap;html=1;" vertex="1" parent="NRH0jWtVndr9vISsza53-44">
          <mxGeometry x="270" y="750" width="140" height="70" as="geometry" />
        </mxCell>
        <mxCell id="NRH0jWtVndr9vISsza53-88" value="&lt;font style=&quot;font-size: 10px;&quot;&gt;Свойство&amp;nbsp;closed == true?&lt;/font&gt;" style="rhombus;whiteSpace=wrap;html=1;" vertex="1" parent="NRH0jWtVndr9vISsza53-44">
          <mxGeometry x="270" y="880" width="140" height="100" as="geometry" />
        </mxCell>
        <mxCell id="NRH0jWtVndr9vISsza53-92" value="&lt;font style=&quot;font-size: 10px;&quot;&gt;Отправка запроса на получение информации о пользователя. В запросе находится ID пользователя на сайте&lt;/font&gt;" style="rounded=1;whiteSpace=wrap;html=1;" vertex="1" parent="NRH0jWtVndr9vISsza53-44">
          <mxGeometry x="240" y="250" width="120" height="90" as="geometry" />
        </mxCell>
        <mxCell id="NRH0jWtVndr9vISsza53-95" value="&lt;font style=&quot;font-size: 10px;&quot;&gt;Удалось получить информацию о пользователе?&lt;/font&gt;" style="rhombus;whiteSpace=wrap;html=1;" vertex="1" parent="NRH0jWtVndr9vISsza53-44">
          <mxGeometry x="232.5" y="490" width="135" height="110" as="geometry" />
        </mxCell>
        <mxCell id="NRH0jWtVndr9vISsza53-96" value="Отправка запроса на создание диалога. В запросе находится ID пользователя на сайте." style="rounded=1;whiteSpace=wrap;html=1;shadow=0;labelBackgroundColor=none;strokeWidth=1;fontFamily=Verdana;fontSize=8;align=center;" vertex="1" parent="NRH0jWtVndr9vISsza53-44">
          <mxGeometry x="350" y="600" width="100" height="60" as="geometry" />
        </mxCell>
        <mxCell id="NRH0jWtVndr9vISsza53-97" value="" style="endArrow=classic;html=1;rounded=0;exitX=1;exitY=0.5;exitDx=0;exitDy=0;entryX=0.5;entryY=0;entryDx=0;entryDy=0;edgeStyle=orthogonalEdgeStyle;" edge="1" parent="NRH0jWtVndr9vISsza53-44" source="NRH0jWtVndr9vISsza53-95" target="NRH0jWtVndr9vISsza53-96">
          <mxGeometry width="50" height="50" relative="1" as="geometry">
            <mxPoint x="480" y="580" as="sourcePoint" />
            <mxPoint x="530" y="530" as="targetPoint" />
          </mxGeometry>
        </mxCell>
        <mxCell id="NRH0jWtVndr9vISsza53-98" value="Да" style="edgeLabel;html=1;align=center;verticalAlign=middle;resizable=0;points=[];" vertex="1" connectable="0" parent="NRH0jWtVndr9vISsza53-97">
          <mxGeometry x="-0.5355" y="-2" relative="1" as="geometry">
            <mxPoint as="offset" />
          </mxGeometry>
        </mxCell>
        <mxCell id="NRH0jWtVndr9vISsza53-99" value="Отправка запроса на создание диалога. В запросе находится ID пользователя на сайте." style="rounded=1;whiteSpace=wrap;html=1;shadow=0;labelBackgroundColor=none;strokeWidth=1;fontFamily=Verdana;fontSize=8;align=center;" vertex="1" parent="NRH0jWtVndr9vISsza53-44">
          <mxGeometry x="110" y="630" width="100" height="60" as="geometry" />
        </mxCell>
        <mxCell id="NRH0jWtVndr9vISsza53-100" value="" style="endArrow=classic;html=1;rounded=0;exitX=0;exitY=0.5;exitDx=0;exitDy=0;entryX=0.5;entryY=0;entryDx=0;entryDy=0;edgeStyle=orthogonalEdgeStyle;" edge="1" parent="NRH0jWtVndr9vISsza53-44" source="NRH0jWtVndr9vISsza53-95" target="NRH0jWtVndr9vISsza53-99">
          <mxGeometry width="50" height="50" relative="1" as="geometry">
            <mxPoint x="378" y="525" as="sourcePoint" />
            <mxPoint x="480" y="640" as="targetPoint" />
          </mxGeometry>
        </mxCell>
        <mxCell id="NRH0jWtVndr9vISsza53-101" value="Нет" style="edgeLabel;html=1;align=center;verticalAlign=middle;resizable=0;points=[];" vertex="1" connectable="0" parent="NRH0jWtVndr9vISsza53-100">
          <mxGeometry x="-0.5355" y="-2" relative="1" as="geometry">
            <mxPoint as="offset" />
          </mxGeometry>
        </mxCell>
        <mxCell id="NRH0jWtVndr9vISsza53-106" value="&lt;font style=&quot;font-size: 10px;&quot;&gt;Отправка чатов пользователя в теле ответа&lt;/font&gt;" style="rounded=1;whiteSpace=wrap;html=1;" vertex="1" parent="NRH0jWtVndr9vISsza53-44">
          <mxGeometry x="590" y="755" width="120" height="60" as="geometry" />
        </mxCell>
        <mxCell id="NRH0jWtVndr9vISsza53-60" value="" style="endArrow=classic;html=1;rounded=0;exitX=0.5;exitY=1;exitDx=0;exitDy=0;entryX=0.5;entryY=0;entryDx=0;entryDy=0;edgeStyle=orthogonalEdgeStyle;" edge="1" parent="NRH0jWtVndr9vISsza53-43" target="NRH0jWtVndr9vISsza53-63">
          <mxGeometry width="50" height="50" relative="1" as="geometry">
            <mxPoint x="500" y="260" as="sourcePoint" />
            <mxPoint x="860" y="260" as="targetPoint" />
            <Array as="points">
              <mxPoint x="500" y="280" />
              <mxPoint x="810" y="280" />
            </Array>
          </mxGeometry>
        </mxCell>
        <mxCell id="NRH0jWtVndr9vISsza53-61" value="" style="endArrow=classic;html=1;rounded=0;exitX=0.5;exitY=1;exitDx=0;exitDy=0;entryX=0.5;entryY=0;entryDx=0;entryDy=0;edgeStyle=orthogonalEdgeStyle;" edge="1" parent="NRH0jWtVndr9vISsza53-43" source="NRH0jWtVndr9vISsza53-63">
          <mxGeometry width="50" height="50" relative="1" as="geometry">
            <mxPoint x="820" y="480" as="sourcePoint" />
            <mxPoint x="342.5" y="400" as="targetPoint" />
            <Array as="points">
              <mxPoint x="810" y="380" />
              <mxPoint x="343" y="380" />
              <mxPoint x="343" y="400" />
            </Array>
          </mxGeometry>
        </mxCell>
        <mxCell id="NRH0jWtVndr9vISsza53-62" value="Carrotquest" style="swimlane;html=1;startSize=20;" vertex="1" parent="NRH0jWtVndr9vISsza53-43">
          <mxGeometry x="890" y="20" width="420" height="1580" as="geometry" />
        </mxCell>
        <mxCell id="NRH0jWtVndr9vISsza53-93" value="&lt;font style=&quot;font-size: 10px;&quot;&gt;Отправка ответа&lt;/font&gt;" style="rounded=1;whiteSpace=wrap;html=1;" vertex="1" parent="NRH0jWtVndr9vISsza53-62">
          <mxGeometry x="150" y="380" width="120" height="60" as="geometry" />
        </mxCell>
        <mxCell id="NRH0jWtVndr9vISsza53-91" value="&lt;font style=&quot;font-size: 10px;&quot;&gt;Создание диалога. В ответе отправляет информацию о созданнм&amp;nbsp;&lt;/font&gt;" style="rounded=1;whiteSpace=wrap;html=1;" vertex="1" parent="NRH0jWtVndr9vISsza53-62">
          <mxGeometry x="150" y="670" width="120" height="60" as="geometry" />
        </mxCell>
        <mxCell id="NRH0jWtVndr9vISsza53-65" value="" style="endArrow=classic;html=1;rounded=0;exitX=1;exitY=0.5;exitDx=0;exitDy=0;entryX=0.5;entryY=0;entryDx=0;entryDy=0;edgeStyle=orthogonalEdgeStyle;" edge="1" parent="NRH0jWtVndr9vISsza53-43" target="NRH0jWtVndr9vISsza53-67">
          <mxGeometry width="50" height="50" relative="1" as="geometry">
            <mxPoint x="241.25" y="600" as="sourcePoint" />
            <mxPoint x="620" y="490" as="targetPoint" />
            <Array as="points">
              <mxPoint x="1200" y="600" />
            </Array>
          </mxGeometry>
        </mxCell>
        <mxCell id="NRH0jWtVndr9vISsza53-66" value="Сайт" style="swimlane;html=1;startSize=20;" vertex="1" parent="NRH0jWtVndr9vISsza53-43">
          <mxGeometry x="1310" y="20" width="360" height="1580" as="geometry" />
        </mxCell>
        <mxCell id="NRH0jWtVndr9vISsza53-70" value="&lt;span style=&quot;font-size: 10px;&quot;&gt;Отправка ключа carrotquest в теле ответа&lt;/span&gt;" style="rounded=1;whiteSpace=wrap;html=1;" vertex="1" parent="NRH0jWtVndr9vISsza53-66">
          <mxGeometry x="120" y="120" width="120" height="60" as="geometry" />
        </mxCell>
        <mxCell id="NRH0jWtVndr9vISsza53-71" value="" style="endArrow=classic;html=1;rounded=0;exitX=1;exitY=0.5;exitDx=0;exitDy=0;entryX=0.5;entryY=0;entryDx=0;entryDy=0;edgeStyle=orthogonalEdgeStyle;" edge="1" parent="NRH0jWtVndr9vISsza53-43" source="NRH0jWtVndr9vISsza53-68" target="NRH0jWtVndr9vISsza53-70">
          <mxGeometry width="50" height="50" relative="1" as="geometry">
            <mxPoint x="500" y="240" as="sourcePoint" />
            <mxPoint x="550" y="190" as="targetPoint" />
          </mxGeometry>
        </mxCell>
        <mxCell id="NRH0jWtVndr9vISsza53-73" value="" style="endArrow=classic;html=1;rounded=0;exitX=0.5;exitY=1;exitDx=0;exitDy=0;entryX=0.5;entryY=0;entryDx=0;entryDy=0;edgeStyle=orthogonalEdgeStyle;" edge="1" parent="NRH0jWtVndr9vISsza53-43" source="NRH0jWtVndr9vISsza53-70" target="NRH0jWtVndr9vISsza53-92">
          <mxGeometry width="50" height="50" relative="1" as="geometry">
            <mxPoint x="900" y="400" as="sourcePoint" />
            <mxPoint x="360" y="229.9999999999999" as="targetPoint" />
          </mxGeometry>
        </mxCell>
        <mxCell id="NRH0jWtVndr9vISsza53-76" value="" style="endArrow=classic;html=1;rounded=0;exitX=0.5;exitY=1;exitDx=0;exitDy=0;entryX=0.5;entryY=0;entryDx=0;entryDy=0;edgeStyle=orthogonalEdgeStyle;" edge="1" parent="NRH0jWtVndr9vISsza53-43" target="NRH0jWtVndr9vISsza53-75">
          <mxGeometry width="50" height="50" relative="1" as="geometry">
            <mxPoint x="300" y="259.9999999999999" as="sourcePoint" />
            <mxPoint x="490" y="360" as="targetPoint" />
          </mxGeometry>
        </mxCell>
        <mxCell id="NRH0jWtVndr9vISsza53-94" value="" style="endArrow=classic;html=1;rounded=0;exitX=0.5;exitY=1;exitDx=0;exitDy=0;edgeStyle=orthogonalEdgeStyle;entryX=0.5;entryY=0;entryDx=0;entryDy=0;" edge="1" parent="NRH0jWtVndr9vISsza53-43" source="NRH0jWtVndr9vISsza53-93" target="NRH0jWtVndr9vISsza53-95">
          <mxGeometry width="50" height="50" relative="1" as="geometry">
            <mxPoint x="1500" y="210" as="sourcePoint" />
            <mxPoint x="290" y="450" as="targetPoint" />
          </mxGeometry>
        </mxCell>
        <mxCell id="NRH0jWtVndr9vISsza53-105" value="" style="endArrow=classic;html=1;rounded=0;exitX=0.5;exitY=1;exitDx=0;exitDy=0;entryX=0.5;entryY=0;entryDx=0;entryDy=0;edgeStyle=orthogonalEdgeStyle;" edge="1" parent="NRH0jWtVndr9vISsza53-43" source="NRH0jWtVndr9vISsza53-92" target="NRH0jWtVndr9vISsza53-93">
          <mxGeometry width="50" height="50" relative="1" as="geometry">
            <mxPoint x="600" y="400" as="sourcePoint" />
            <mxPoint x="650" y="350" as="targetPoint" />
          </mxGeometry>
        </mxCell>
        <mxCell id="NRH0jWtVndr9vISsza53-89" value="&lt;font style=&quot;font-size: 10px;&quot;&gt;Свойство&amp;nbsp;closed == true?&lt;/font&gt;" style="rhombus;whiteSpace=wrap;html=1;" vertex="1" parent="1">
          <mxGeometry x="1920" y="950" width="140" height="100" as="geometry" />
        </mxCell>
        <mxCell id="NRH0jWtVndr9vISsza53-90" value="&lt;font style=&quot;font-size: 10px;&quot;&gt;Отправка запроса на получение чатов пользователя&lt;/font&gt;" style="rounded=1;whiteSpace=wrap;html=1;" vertex="1" parent="1">
          <mxGeometry x="1410" y="350" width="120" height="60" as="geometry" />
        </mxCell>
      </root>
    </mxGraphModel>
  </diagram>
</mxfile>
